<mxfile host="app.diagrams.net" modified="2023-07-05T18:28:01.404Z" agent="Mozilla/5.0 (Windows NT 10.0; Win64; x64) AppleWebKit/537.36 (KHTML, like Gecko) Chrome/114.0.0.0 Safari/537.36" etag="wBjT65XL5suZ4r4etTcN" version="21.6.1" type="device" pages="2">
  <diagram name="Document Operations" id="X4zqeltw9sgNQOUd9Sa-">
    <mxGraphModel dx="2261" dy="1868" grid="1" gridSize="10" guides="1" tooltips="1" connect="1" arrows="1" fold="1" page="1" pageScale="1" pageWidth="827" pageHeight="1169" math="0" shadow="0">
      <root>
        <mxCell id="0" />
        <mxCell id="1" parent="0" />
        <mxCell id="-YhR4COmM_-pPNWxMUSu-3" value="" style="rounded=0;whiteSpace=wrap;html=1;" parent="1" vertex="1">
          <mxGeometry x="320" y="80" width="210" height="560" as="geometry" />
        </mxCell>
        <mxCell id="-YhR4COmM_-pPNWxMUSu-19" style="edgeStyle=orthogonalEdgeStyle;rounded=0;orthogonalLoop=1;jettySize=auto;html=1;entryX=0;entryY=0.5;entryDx=0;entryDy=0;" parent="1" source="-YhR4COmM_-pPNWxMUSu-4" target="-YhR4COmM_-pPNWxMUSu-17" edge="1">
          <mxGeometry relative="1" as="geometry" />
        </mxCell>
        <mxCell id="-YhR4COmM_-pPNWxMUSu-4" value="uploadDocument" style="rounded=0;whiteSpace=wrap;html=1;" parent="1" vertex="1">
          <mxGeometry x="320" y="80" width="210" height="80" as="geometry" />
        </mxCell>
        <mxCell id="-YhR4COmM_-pPNWxMUSu-10" value="" style="rounded=0;whiteSpace=wrap;html=1;" parent="1" vertex="1">
          <mxGeometry x="-70" y="80" width="210" height="560" as="geometry" />
        </mxCell>
        <mxCell id="-YhR4COmM_-pPNWxMUSu-14" style="edgeStyle=orthogonalEdgeStyle;rounded=0;orthogonalLoop=1;jettySize=auto;html=1;entryX=0;entryY=0.5;entryDx=0;entryDy=0;" parent="1" source="-YhR4COmM_-pPNWxMUSu-13" target="-YhR4COmM_-pPNWxMUSu-4" edge="1">
          <mxGeometry relative="1" as="geometry" />
        </mxCell>
        <mxCell id="-YhR4COmM_-pPNWxMUSu-13" value="/api/doc/v1/save&lt;br&gt;/ POST" style="rounded=0;whiteSpace=wrap;html=1;strokeColor=none;" parent="1" vertex="1">
          <mxGeometry x="-70" y="80" width="210" height="80" as="geometry" />
        </mxCell>
        <mxCell id="-YhR4COmM_-pPNWxMUSu-16" value="" style="rounded=0;whiteSpace=wrap;html=1;" parent="1" vertex="1">
          <mxGeometry x="640" y="80" width="210" height="560" as="geometry" />
        </mxCell>
        <mxCell id="-YhR4COmM_-pPNWxMUSu-39" style="edgeStyle=orthogonalEdgeStyle;rounded=0;orthogonalLoop=1;jettySize=auto;html=1;entryX=0;entryY=0.5;entryDx=0;entryDy=0;" parent="1" source="-YhR4COmM_-pPNWxMUSu-17" target="-YhR4COmM_-pPNWxMUSu-25" edge="1">
          <mxGeometry relative="1" as="geometry" />
        </mxCell>
        <mxCell id="-YhR4COmM_-pPNWxMUSu-17" value="save()&lt;br&gt;&lt;br&gt;Return:&amp;nbsp;Boolean" style="rounded=0;whiteSpace=wrap;html=1;" parent="1" vertex="1">
          <mxGeometry x="640" y="80" width="210" height="80" as="geometry" />
        </mxCell>
        <mxCell id="-YhR4COmM_-pPNWxMUSu-18" value="&lt;font style=&quot;font-size: 16px;&quot;&gt;DocumentService Interface&lt;br&gt;&lt;br&gt;&lt;/font&gt;" style="text;html=1;align=center;verticalAlign=middle;resizable=0;points=[];autosize=1;strokeColor=none;fillColor=none;" parent="1" vertex="1">
          <mxGeometry x="635" y="30" width="220" height="50" as="geometry" />
        </mxCell>
        <mxCell id="-YhR4COmM_-pPNWxMUSu-21" value="" style="rounded=0;whiteSpace=wrap;html=1;" parent="1" vertex="1">
          <mxGeometry x="972.5" y="80" width="117.5" height="560" as="geometry" />
        </mxCell>
        <mxCell id="-YhR4COmM_-pPNWxMUSu-23" value="&lt;font style=&quot;font-size: 16px;&quot;&gt;DocumentService Implemantation&lt;br&gt;Layer&lt;br&gt;-&lt;br&gt;&lt;br&gt;&lt;/font&gt;" style="text;html=1;align=center;verticalAlign=middle;resizable=0;points=[];autosize=1;strokeColor=none;fillColor=none;" parent="1" vertex="1">
          <mxGeometry x="898.75" width="260" height="90" as="geometry" />
        </mxCell>
        <mxCell id="-YhR4COmM_-pPNWxMUSu-70" style="edgeStyle=orthogonalEdgeStyle;rounded=0;orthogonalLoop=1;jettySize=auto;html=1;entryX=0;entryY=0.5;entryDx=0;entryDy=0;" parent="1" source="-YhR4COmM_-pPNWxMUSu-25" target="-YhR4COmM_-pPNWxMUSu-69" edge="1">
          <mxGeometry relative="1" as="geometry" />
        </mxCell>
        <mxCell id="-YhR4COmM_-pPNWxMUSu-25" value="save" style="rounded=0;whiteSpace=wrap;html=1;" parent="1" vertex="1">
          <mxGeometry x="972.5" y="80" width="117.5" height="50" as="geometry" />
        </mxCell>
        <mxCell id="-YhR4COmM_-pPNWxMUSu-175" style="edgeStyle=orthogonalEdgeStyle;rounded=0;orthogonalLoop=1;jettySize=auto;html=1;entryX=1;entryY=0.5;entryDx=0;entryDy=0;" parent="1" source="-YhR4COmM_-pPNWxMUSu-28" target="-YhR4COmM_-pPNWxMUSu-106" edge="1">
          <mxGeometry relative="1" as="geometry" />
        </mxCell>
        <mxCell id="-YhR4COmM_-pPNWxMUSu-28" value="" style="shape=cylinder3;whiteSpace=wrap;html=1;boundedLbl=1;backgroundOutline=1;size=15;" parent="1" vertex="1">
          <mxGeometry x="1670" y="270" width="60" height="80" as="geometry" />
        </mxCell>
        <mxCell id="-YhR4COmM_-pPNWxMUSu-33" style="edgeStyle=orthogonalEdgeStyle;rounded=0;orthogonalLoop=1;jettySize=auto;html=1;" parent="1" source="-YhR4COmM_-pPNWxMUSu-30" target="-YhR4COmM_-pPNWxMUSu-31" edge="1">
          <mxGeometry relative="1" as="geometry" />
        </mxCell>
        <mxCell id="-YhR4COmM_-pPNWxMUSu-30" value="/api/doc/v1/save-base64 &lt;br&gt;/ POST" style="rounded=0;whiteSpace=wrap;html=1;strokeColor=none;" parent="1" vertex="1">
          <mxGeometry x="-70" y="160" width="210" height="80" as="geometry" />
        </mxCell>
        <mxCell id="-YhR4COmM_-pPNWxMUSu-53" style="edgeStyle=orthogonalEdgeStyle;rounded=0;orthogonalLoop=1;jettySize=auto;html=1;entryX=0;entryY=0.5;entryDx=0;entryDy=0;" parent="1" source="-YhR4COmM_-pPNWxMUSu-31" target="-YhR4COmM_-pPNWxMUSu-37" edge="1">
          <mxGeometry relative="1" as="geometry" />
        </mxCell>
        <mxCell id="-YhR4COmM_-pPNWxMUSu-31" value="saveBase64Futures()" style="rounded=0;whiteSpace=wrap;html=1;" parent="1" vertex="1">
          <mxGeometry x="320" y="160" width="210" height="80" as="geometry" />
        </mxCell>
        <mxCell id="-YhR4COmM_-pPNWxMUSu-40" style="edgeStyle=orthogonalEdgeStyle;rounded=0;orthogonalLoop=1;jettySize=auto;html=1;entryX=0;entryY=0.5;entryDx=0;entryDy=0;" parent="1" source="-YhR4COmM_-pPNWxMUSu-37" target="-YhR4COmM_-pPNWxMUSu-38" edge="1">
          <mxGeometry relative="1" as="geometry" />
        </mxCell>
        <mxCell id="-YhR4COmM_-pPNWxMUSu-37" value="saveBase64()&lt;br&gt;&lt;br&gt;Return:&amp;nbsp;Boolean" style="rounded=0;whiteSpace=wrap;html=1;" parent="1" vertex="1">
          <mxGeometry x="640" y="160" width="210" height="80" as="geometry" />
        </mxCell>
        <mxCell id="-YhR4COmM_-pPNWxMUSu-42" value="" style="edgeStyle=orthogonalEdgeStyle;rounded=0;orthogonalLoop=1;jettySize=auto;html=1;" parent="1" source="-YhR4COmM_-pPNWxMUSu-38" target="-YhR4COmM_-pPNWxMUSu-41" edge="1">
          <mxGeometry relative="1" as="geometry" />
        </mxCell>
        <mxCell id="-YhR4COmM_-pPNWxMUSu-38" value="saveBase64" style="rounded=0;whiteSpace=wrap;html=1;" parent="1" vertex="1">
          <mxGeometry x="972.5" y="130" width="117.5" height="50" as="geometry" />
        </mxCell>
        <mxCell id="-YhR4COmM_-pPNWxMUSu-88" style="edgeStyle=orthogonalEdgeStyle;rounded=0;orthogonalLoop=1;jettySize=auto;html=1;entryX=0;entryY=0.5;entryDx=0;entryDy=0;" parent="1" source="-YhR4COmM_-pPNWxMUSu-41" target="-YhR4COmM_-pPNWxMUSu-86" edge="1">
          <mxGeometry relative="1" as="geometry" />
        </mxCell>
        <mxCell id="-YhR4COmM_-pPNWxMUSu-41" value="SaveBase64DocumentService&lt;br&gt;executable&amp;nbsp;service" style="rounded=0;whiteSpace=wrap;html=1;" parent="1" vertex="1">
          <mxGeometry x="1195" y="115" width="170" height="80" as="geometry" />
        </mxCell>
        <mxCell id="-YhR4COmM_-pPNWxMUSu-49" style="edgeStyle=orthogonalEdgeStyle;rounded=0;orthogonalLoop=1;jettySize=auto;html=1;entryX=0;entryY=0.5;entryDx=0;entryDy=0;" parent="1" source="-YhR4COmM_-pPNWxMUSu-47" target="-YhR4COmM_-pPNWxMUSu-48" edge="1">
          <mxGeometry relative="1" as="geometry" />
        </mxCell>
        <mxCell id="-YhR4COmM_-pPNWxMUSu-47" value="/api/doc/v1/save-base64-futures&lt;br&gt;&amp;nbsp;/ POST" style="rounded=0;whiteSpace=wrap;html=1;strokeColor=none;" parent="1" vertex="1">
          <mxGeometry x="-70" y="240" width="210" height="80" as="geometry" />
        </mxCell>
        <mxCell id="-YhR4COmM_-pPNWxMUSu-55" style="edgeStyle=orthogonalEdgeStyle;rounded=0;orthogonalLoop=1;jettySize=auto;html=1;entryX=0;entryY=0.5;entryDx=0;entryDy=0;" parent="1" source="-YhR4COmM_-pPNWxMUSu-48" target="-YhR4COmM_-pPNWxMUSu-54" edge="1">
          <mxGeometry relative="1" as="geometry" />
        </mxCell>
        <mxCell id="-YhR4COmM_-pPNWxMUSu-48" value="saveBase64Futures()" style="rounded=0;whiteSpace=wrap;html=1;" parent="1" vertex="1">
          <mxGeometry x="320" y="240" width="210" height="80" as="geometry" />
        </mxCell>
        <mxCell id="-YhR4COmM_-pPNWxMUSu-50" value="SaveDocumentBase64Request&amp;nbsp;" style="text;html=1;align=center;verticalAlign=middle;resizable=0;points=[];autosize=1;strokeColor=none;fillColor=none;" parent="1" vertex="1">
          <mxGeometry x="140" y="165" width="190" height="30" as="geometry" />
        </mxCell>
        <mxCell id="-YhR4COmM_-pPNWxMUSu-51" value="SaveDocumentRequest" style="text;html=1;align=center;verticalAlign=middle;resizable=0;points=[];autosize=1;strokeColor=none;fillColor=none;" parent="1" vertex="1">
          <mxGeometry x="160" y="90" width="150" height="30" as="geometry" />
        </mxCell>
        <mxCell id="-YhR4COmM_-pPNWxMUSu-52" value="SaveDocumentBase64Request&amp;nbsp;" style="text;html=1;align=center;verticalAlign=middle;resizable=0;points=[];autosize=1;strokeColor=none;fillColor=none;" parent="1" vertex="1">
          <mxGeometry x="140" y="250" width="190" height="30" as="geometry" />
        </mxCell>
        <mxCell id="-YhR4COmM_-pPNWxMUSu-58" style="edgeStyle=orthogonalEdgeStyle;rounded=0;orthogonalLoop=1;jettySize=auto;html=1;entryX=0;entryY=0.5;entryDx=0;entryDy=0;" parent="1" source="-YhR4COmM_-pPNWxMUSu-54" target="-YhR4COmM_-pPNWxMUSu-56" edge="1">
          <mxGeometry relative="1" as="geometry">
            <Array as="points">
              <mxPoint x="930" y="280" />
              <mxPoint x="930" y="205" />
            </Array>
          </mxGeometry>
        </mxCell>
        <mxCell id="-YhR4COmM_-pPNWxMUSu-54" value="saveBase64Futures()&lt;br&gt;&lt;br&gt;Return:&amp;nbsp;Boolean" style="rounded=0;whiteSpace=wrap;html=1;" parent="1" vertex="1">
          <mxGeometry x="640" y="240" width="210" height="80" as="geometry" />
        </mxCell>
        <mxCell id="-YhR4COmM_-pPNWxMUSu-66" style="edgeStyle=orthogonalEdgeStyle;rounded=0;orthogonalLoop=1;jettySize=auto;html=1;" parent="1" source="-YhR4COmM_-pPNWxMUSu-56" target="-YhR4COmM_-pPNWxMUSu-65" edge="1">
          <mxGeometry relative="1" as="geometry" />
        </mxCell>
        <mxCell id="-YhR4COmM_-pPNWxMUSu-56" value="saveBase64Futures" style="rounded=0;whiteSpace=wrap;html=1;" parent="1" vertex="1">
          <mxGeometry x="972.5" y="180" width="117.5" height="50" as="geometry" />
        </mxCell>
        <mxCell id="-YhR4COmM_-pPNWxMUSu-89" style="edgeStyle=orthogonalEdgeStyle;rounded=0;orthogonalLoop=1;jettySize=auto;html=1;entryX=0.5;entryY=1;entryDx=0;entryDy=0;" parent="1" source="-YhR4COmM_-pPNWxMUSu-65" target="-YhR4COmM_-pPNWxMUSu-86" edge="1">
          <mxGeometry relative="1" as="geometry" />
        </mxCell>
        <mxCell id="-YhR4COmM_-pPNWxMUSu-65" value="CompletableFutureBase64&lt;br&gt;Document&lt;br&gt;executable&amp;nbsp;service" style="rounded=0;whiteSpace=wrap;html=1;" parent="1" vertex="1">
          <mxGeometry x="1195" y="195" width="170" height="80" as="geometry" />
        </mxCell>
        <mxCell id="-YhR4COmM_-pPNWxMUSu-182" style="edgeStyle=orthogonalEdgeStyle;rounded=0;orthogonalLoop=1;jettySize=auto;html=1;entryX=0.5;entryY=0;entryDx=0;entryDy=0;" parent="1" source="-YhR4COmM_-pPNWxMUSu-69" target="-YhR4COmM_-pPNWxMUSu-86" edge="1">
          <mxGeometry relative="1" as="geometry" />
        </mxCell>
        <mxCell id="-YhR4COmM_-pPNWxMUSu-69" value="SaveDocumentService&lt;br style=&quot;border-color: var(--border-color);&quot;&gt;executable service" style="rounded=0;whiteSpace=wrap;html=1;" parent="1" vertex="1">
          <mxGeometry x="1195" y="40" width="170" height="80" as="geometry" />
        </mxCell>
        <mxCell id="-YhR4COmM_-pPNWxMUSu-74" style="edgeStyle=orthogonalEdgeStyle;rounded=0;orthogonalLoop=1;jettySize=auto;html=1;entryX=0;entryY=0.5;entryDx=0;entryDy=0;" parent="1" source="-YhR4COmM_-pPNWxMUSu-72" target="-YhR4COmM_-pPNWxMUSu-73" edge="1">
          <mxGeometry relative="1" as="geometry" />
        </mxCell>
        <mxCell id="-YhR4COmM_-pPNWxMUSu-72" value="/api/doc/v1//document-list/{username}/{userId}&lt;br&gt;&amp;nbsp;/ GET" style="rounded=0;whiteSpace=wrap;html=1;strokeColor=none;" parent="1" vertex="1">
          <mxGeometry x="-70" y="320" width="210" height="80" as="geometry" />
        </mxCell>
        <mxCell id="-YhR4COmM_-pPNWxMUSu-77" style="edgeStyle=orthogonalEdgeStyle;rounded=0;orthogonalLoop=1;jettySize=auto;html=1;entryX=0;entryY=0.5;entryDx=0;entryDy=0;" parent="1" source="-YhR4COmM_-pPNWxMUSu-73" target="-YhR4COmM_-pPNWxMUSu-76" edge="1">
          <mxGeometry relative="1" as="geometry" />
        </mxCell>
        <mxCell id="-YhR4COmM_-pPNWxMUSu-73" value="documents()" style="rounded=0;whiteSpace=wrap;html=1;" parent="1" vertex="1">
          <mxGeometry x="320" y="320" width="210" height="80" as="geometry" />
        </mxCell>
        <mxCell id="-YhR4COmM_-pPNWxMUSu-75" value="PathVariable username, userId" style="text;html=1;align=center;verticalAlign=middle;resizable=0;points=[];autosize=1;strokeColor=none;fillColor=none;" parent="1" vertex="1">
          <mxGeometry x="130" y="328" width="190" height="30" as="geometry" />
        </mxCell>
        <mxCell id="-YhR4COmM_-pPNWxMUSu-80" style="edgeStyle=orthogonalEdgeStyle;rounded=0;orthogonalLoop=1;jettySize=auto;html=1;entryX=0;entryY=0.5;entryDx=0;entryDy=0;" parent="1" source="-YhR4COmM_-pPNWxMUSu-76" target="-YhR4COmM_-pPNWxMUSu-79" edge="1">
          <mxGeometry relative="1" as="geometry" />
        </mxCell>
        <mxCell id="-YhR4COmM_-pPNWxMUSu-76" value="documents()&lt;br&gt;&lt;br&gt;Return:&amp;nbsp;DocumentListResponse" style="rounded=0;whiteSpace=wrap;html=1;" parent="1" vertex="1">
          <mxGeometry x="640" y="320" width="210" height="80" as="geometry" />
        </mxCell>
        <mxCell id="-YhR4COmM_-pPNWxMUSu-82" style="edgeStyle=orthogonalEdgeStyle;rounded=0;orthogonalLoop=1;jettySize=auto;html=1;entryX=0;entryY=0.5;entryDx=0;entryDy=0;" parent="1" source="-YhR4COmM_-pPNWxMUSu-79" target="-YhR4COmM_-pPNWxMUSu-81" edge="1">
          <mxGeometry relative="1" as="geometry" />
        </mxCell>
        <mxCell id="-YhR4COmM_-pPNWxMUSu-79" value="documents" style="rounded=0;whiteSpace=wrap;html=1;" parent="1" vertex="1">
          <mxGeometry x="972.5" y="335" width="117.5" height="50" as="geometry" />
        </mxCell>
        <mxCell id="-YhR4COmM_-pPNWxMUSu-81" value="GetDocumentListService&lt;br&gt;executable&amp;nbsp;service" style="rounded=0;whiteSpace=wrap;html=1;" parent="1" vertex="1">
          <mxGeometry x="1195" y="330" width="170" height="80" as="geometry" />
        </mxCell>
        <mxCell id="-YhR4COmM_-pPNWxMUSu-91" value="" style="edgeStyle=orthogonalEdgeStyle;rounded=0;orthogonalLoop=1;jettySize=auto;html=1;" parent="1" source="-YhR4COmM_-pPNWxMUSu-86" target="-YhR4COmM_-pPNWxMUSu-90" edge="1">
          <mxGeometry relative="1" as="geometry" />
        </mxCell>
        <mxCell id="-YhR4COmM_-pPNWxMUSu-86" value="Save Operation" style="rounded=0;whiteSpace=wrap;html=1;" parent="1" vertex="1">
          <mxGeometry x="1440" y="125" width="120" height="60" as="geometry" />
        </mxCell>
        <mxCell id="-YhR4COmM_-pPNWxMUSu-92" style="edgeStyle=orthogonalEdgeStyle;rounded=0;orthogonalLoop=1;jettySize=auto;html=1;entryX=0.5;entryY=0;entryDx=0;entryDy=0;entryPerimeter=0;" parent="1" source="-YhR4COmM_-pPNWxMUSu-90" target="-YhR4COmM_-pPNWxMUSu-28" edge="1">
          <mxGeometry relative="1" as="geometry" />
        </mxCell>
        <mxCell id="-YhR4COmM_-pPNWxMUSu-94" style="edgeStyle=orthogonalEdgeStyle;rounded=0;orthogonalLoop=1;jettySize=auto;html=1;" parent="1" source="-YhR4COmM_-pPNWxMUSu-90" target="-YhR4COmM_-pPNWxMUSu-95" edge="1">
          <mxGeometry relative="1" as="geometry">
            <mxPoint x="1712" y="30" as="targetPoint" />
          </mxGeometry>
        </mxCell>
        <mxCell id="-YhR4COmM_-pPNWxMUSu-90" value="&lt;font style=&quot;font-size: 10px;&quot;&gt;Is save operation&lt;br&gt;Success?&lt;/font&gt;" style="rhombus;whiteSpace=wrap;html=1;rounded=0;" parent="1" vertex="1">
          <mxGeometry x="1642.5" y="93.75" width="115" height="122.5" as="geometry" />
        </mxCell>
        <mxCell id="-YhR4COmM_-pPNWxMUSu-93" value="Y" style="text;html=1;align=center;verticalAlign=middle;resizable=0;points=[];autosize=1;strokeColor=none;fillColor=none;" parent="1" vertex="1">
          <mxGeometry x="1700" y="230" width="30" height="30" as="geometry" />
        </mxCell>
        <mxCell id="-YhR4COmM_-pPNWxMUSu-95" value="RestException&lt;br&gt;Handle" style="rounded=1;whiteSpace=wrap;html=1;" parent="1" vertex="1">
          <mxGeometry x="1640" width="120" height="60" as="geometry" />
        </mxCell>
        <mxCell id="-YhR4COmM_-pPNWxMUSu-96" value="N" style="text;html=1;align=center;verticalAlign=middle;resizable=0;points=[];autosize=1;strokeColor=none;fillColor=none;" parent="1" vertex="1">
          <mxGeometry x="1700" y="65" width="30" height="30" as="geometry" />
        </mxCell>
        <mxCell id="-YhR4COmM_-pPNWxMUSu-97" value="&lt;font style=&quot;font-size: 16px;&quot;&gt;Executable Service Layers&lt;br&gt;&lt;/font&gt;" style="text;html=1;align=center;verticalAlign=middle;resizable=0;points=[];autosize=1;strokeColor=none;fillColor=none;" parent="1" vertex="1">
          <mxGeometry x="1177.5" y="-10" width="210" height="30" as="geometry" />
        </mxCell>
        <mxCell id="-YhR4COmM_-pPNWxMUSu-101" value="&lt;font style=&quot;font-size: 16px;&quot;&gt;Controller&lt;br&gt;&lt;/font&gt;" style="text;html=1;align=center;verticalAlign=middle;resizable=0;points=[];autosize=1;strokeColor=none;fillColor=none;" parent="1" vertex="1">
          <mxGeometry x="380" y="20" width="90" height="30" as="geometry" />
        </mxCell>
        <mxCell id="-YhR4COmM_-pPNWxMUSu-104" value="&lt;font style=&quot;font-size: 16px;&quot;&gt;Endpoints&lt;br&gt;&lt;/font&gt;" style="text;html=1;align=center;verticalAlign=middle;resizable=0;points=[];autosize=1;strokeColor=none;fillColor=none;" parent="1" vertex="1">
          <mxGeometry x="-20" y="30" width="90" height="30" as="geometry" />
        </mxCell>
        <mxCell id="-YhR4COmM_-pPNWxMUSu-109" style="edgeStyle=orthogonalEdgeStyle;rounded=0;orthogonalLoop=1;jettySize=auto;html=1;entryX=1;entryY=0.5;entryDx=0;entryDy=0;" parent="1" source="-YhR4COmM_-pPNWxMUSu-106" target="-YhR4COmM_-pPNWxMUSu-81" edge="1">
          <mxGeometry relative="1" as="geometry" />
        </mxCell>
        <mxCell id="-YhR4COmM_-pPNWxMUSu-119" style="edgeStyle=orthogonalEdgeStyle;rounded=0;orthogonalLoop=1;jettySize=auto;html=1;entryX=1;entryY=0.5;entryDx=0;entryDy=0;" parent="1" source="-YhR4COmM_-pPNWxMUSu-106" target="-YhR4COmM_-pPNWxMUSu-117" edge="1">
          <mxGeometry relative="1" as="geometry" />
        </mxCell>
        <mxCell id="-YhR4COmM_-pPNWxMUSu-106" value="Get Documents" style="rounded=0;whiteSpace=wrap;html=1;" parent="1" vertex="1">
          <mxGeometry x="1440" y="380" width="120" height="60" as="geometry" />
        </mxCell>
        <mxCell id="-YhR4COmM_-pPNWxMUSu-112" style="edgeStyle=orthogonalEdgeStyle;rounded=0;orthogonalLoop=1;jettySize=auto;html=1;entryX=0;entryY=0.5;entryDx=0;entryDy=0;" parent="1" source="-YhR4COmM_-pPNWxMUSu-110" target="-YhR4COmM_-pPNWxMUSu-111" edge="1">
          <mxGeometry relative="1" as="geometry" />
        </mxCell>
        <mxCell id="-YhR4COmM_-pPNWxMUSu-110" value="/api/doc/v1/specific-document/{documentId}&amp;nbsp; &lt;br&gt;/ GET" style="rounded=0;whiteSpace=wrap;html=1;strokeColor=none;" parent="1" vertex="1">
          <mxGeometry x="-70" y="400" width="210" height="80" as="geometry" />
        </mxCell>
        <mxCell id="-YhR4COmM_-pPNWxMUSu-146" style="edgeStyle=orthogonalEdgeStyle;rounded=0;orthogonalLoop=1;jettySize=auto;html=1;" parent="1" source="-YhR4COmM_-pPNWxMUSu-111" target="-YhR4COmM_-pPNWxMUSu-114" edge="1">
          <mxGeometry relative="1" as="geometry" />
        </mxCell>
        <mxCell id="-YhR4COmM_-pPNWxMUSu-111" value="documentInfo()" style="rounded=0;whiteSpace=wrap;html=1;" parent="1" vertex="1">
          <mxGeometry x="320" y="400" width="210" height="80" as="geometry" />
        </mxCell>
        <mxCell id="-YhR4COmM_-pPNWxMUSu-113" value="&lt;span style=&quot;color: rgb(0, 0, 0); font-family: Helvetica; font-size: 12px; font-style: normal; font-variant-ligatures: normal; font-variant-caps: normal; font-weight: 400; letter-spacing: normal; orphans: 2; text-align: center; text-indent: 0px; text-transform: none; widows: 2; word-spacing: 0px; -webkit-text-stroke-width: 0px; background-color: rgb(251, 251, 251); text-decoration-thickness: initial; text-decoration-style: initial; text-decoration-color: initial; float: none; display: inline !important;&quot;&gt;PathVariable&amp;nbsp; documentId&lt;/span&gt;" style="text;whiteSpace=wrap;html=1;" parent="1" vertex="1">
          <mxGeometry x="160" y="410" width="150" height="30" as="geometry" />
        </mxCell>
        <mxCell id="-YhR4COmM_-pPNWxMUSu-116" style="edgeStyle=orthogonalEdgeStyle;rounded=0;orthogonalLoop=1;jettySize=auto;html=1;" parent="1" source="-YhR4COmM_-pPNWxMUSu-114" target="-YhR4COmM_-pPNWxMUSu-115" edge="1">
          <mxGeometry relative="1" as="geometry" />
        </mxCell>
        <mxCell id="-YhR4COmM_-pPNWxMUSu-114" value="documentInfo()&lt;br&gt;&lt;br&gt;Return:&amp;nbsp;DocumentListResponse" style="rounded=0;whiteSpace=wrap;html=1;" parent="1" vertex="1">
          <mxGeometry x="640" y="400" width="210" height="80" as="geometry" />
        </mxCell>
        <mxCell id="-YhR4COmM_-pPNWxMUSu-118" style="edgeStyle=orthogonalEdgeStyle;rounded=0;orthogonalLoop=1;jettySize=auto;html=1;" parent="1" source="-YhR4COmM_-pPNWxMUSu-115" target="-YhR4COmM_-pPNWxMUSu-117" edge="1">
          <mxGeometry relative="1" as="geometry" />
        </mxCell>
        <mxCell id="-YhR4COmM_-pPNWxMUSu-115" value="documentInfo" style="rounded=0;whiteSpace=wrap;html=1;" parent="1" vertex="1">
          <mxGeometry x="972.5" y="385" width="117.5" height="50" as="geometry" />
        </mxCell>
        <mxCell id="-YhR4COmM_-pPNWxMUSu-117" value="GetDocumentInfoService&lt;br&gt;executable&amp;nbsp;service" style="rounded=0;whiteSpace=wrap;html=1;" parent="1" vertex="1">
          <mxGeometry x="1195" y="410" width="170" height="80" as="geometry" />
        </mxCell>
        <mxCell id="-YhR4COmM_-pPNWxMUSu-122" style="edgeStyle=orthogonalEdgeStyle;rounded=0;orthogonalLoop=1;jettySize=auto;html=1;entryX=0;entryY=0.5;entryDx=0;entryDy=0;" parent="1" source="-YhR4COmM_-pPNWxMUSu-120" target="-YhR4COmM_-pPNWxMUSu-121" edge="1">
          <mxGeometry relative="1" as="geometry" />
        </mxCell>
        <mxCell id="-YhR4COmM_-pPNWxMUSu-120" value="/api/doc/v1/delete-document/{documentId}&amp;nbsp;&lt;br&gt;&amp;nbsp;/ DELETE" style="rounded=0;whiteSpace=wrap;html=1;strokeColor=none;" parent="1" vertex="1">
          <mxGeometry x="-70" y="480" width="210" height="80" as="geometry" />
        </mxCell>
        <mxCell id="-YhR4COmM_-pPNWxMUSu-124" style="edgeStyle=orthogonalEdgeStyle;rounded=0;orthogonalLoop=1;jettySize=auto;html=1;entryX=0;entryY=0.5;entryDx=0;entryDy=0;" parent="1" source="-YhR4COmM_-pPNWxMUSu-121" target="-YhR4COmM_-pPNWxMUSu-123" edge="1">
          <mxGeometry relative="1" as="geometry" />
        </mxCell>
        <mxCell id="-YhR4COmM_-pPNWxMUSu-121" value="deleteDocument()" style="rounded=0;whiteSpace=wrap;html=1;" parent="1" vertex="1">
          <mxGeometry x="320" y="480" width="210" height="80" as="geometry" />
        </mxCell>
        <mxCell id="-YhR4COmM_-pPNWxMUSu-126" style="edgeStyle=orthogonalEdgeStyle;rounded=0;orthogonalLoop=1;jettySize=auto;html=1;entryX=0;entryY=0.5;entryDx=0;entryDy=0;" parent="1" source="-YhR4COmM_-pPNWxMUSu-123" target="-YhR4COmM_-pPNWxMUSu-125" edge="1">
          <mxGeometry relative="1" as="geometry" />
        </mxCell>
        <mxCell id="-YhR4COmM_-pPNWxMUSu-123" value="deleteDocument()&lt;br&gt;&lt;br&gt;Return: Boolean" style="rounded=0;whiteSpace=wrap;html=1;" parent="1" vertex="1">
          <mxGeometry x="640" y="480" width="210" height="80" as="geometry" />
        </mxCell>
        <mxCell id="-YhR4COmM_-pPNWxMUSu-128" style="edgeStyle=orthogonalEdgeStyle;rounded=0;orthogonalLoop=1;jettySize=auto;html=1;entryX=0;entryY=0.5;entryDx=0;entryDy=0;" parent="1" source="-YhR4COmM_-pPNWxMUSu-125" target="-YhR4COmM_-pPNWxMUSu-127" edge="1">
          <mxGeometry relative="1" as="geometry" />
        </mxCell>
        <mxCell id="-YhR4COmM_-pPNWxMUSu-125" value="deleteDocument" style="rounded=0;whiteSpace=wrap;html=1;" parent="1" vertex="1">
          <mxGeometry x="972.5" y="470" width="117.5" height="50" as="geometry" />
        </mxCell>
        <mxCell id="-YhR4COmM_-pPNWxMUSu-130" style="edgeStyle=orthogonalEdgeStyle;rounded=0;orthogonalLoop=1;jettySize=auto;html=1;entryX=0;entryY=0.5;entryDx=0;entryDy=0;" parent="1" source="-YhR4COmM_-pPNWxMUSu-127" target="-YhR4COmM_-pPNWxMUSu-129" edge="1">
          <mxGeometry relative="1" as="geometry" />
        </mxCell>
        <mxCell id="-YhR4COmM_-pPNWxMUSu-127" value="DeleteDocumentService&lt;br&gt;executable&amp;nbsp;service" style="rounded=0;whiteSpace=wrap;html=1;" parent="1" vertex="1">
          <mxGeometry x="1195" y="528" width="170" height="80" as="geometry" />
        </mxCell>
        <mxCell id="-YhR4COmM_-pPNWxMUSu-132" style="edgeStyle=orthogonalEdgeStyle;rounded=0;orthogonalLoop=1;jettySize=auto;html=1;entryX=0;entryY=0.5;entryDx=0;entryDy=0;" parent="1" source="-YhR4COmM_-pPNWxMUSu-129" target="-YhR4COmM_-pPNWxMUSu-131" edge="1">
          <mxGeometry relative="1" as="geometry" />
        </mxCell>
        <mxCell id="-YhR4COmM_-pPNWxMUSu-129" value="Delete Operation" style="rounded=0;whiteSpace=wrap;html=1;" parent="1" vertex="1">
          <mxGeometry x="1440" y="538" width="120" height="60" as="geometry" />
        </mxCell>
        <mxCell id="-YhR4COmM_-pPNWxMUSu-133" style="edgeStyle=orthogonalEdgeStyle;rounded=0;orthogonalLoop=1;jettySize=auto;html=1;entryX=1;entryY=0.5;entryDx=0;entryDy=0;entryPerimeter=0;" parent="1" source="-YhR4COmM_-pPNWxMUSu-131" target="-YhR4COmM_-pPNWxMUSu-28" edge="1">
          <mxGeometry relative="1" as="geometry">
            <Array as="points">
              <mxPoint x="1770" y="545" />
              <mxPoint x="1770" y="310" />
            </Array>
          </mxGeometry>
        </mxCell>
        <mxCell id="-YhR4COmM_-pPNWxMUSu-134" style="edgeStyle=orthogonalEdgeStyle;rounded=0;orthogonalLoop=1;jettySize=auto;html=1;entryX=1;entryY=0.5;entryDx=0;entryDy=0;" parent="1" source="-YhR4COmM_-pPNWxMUSu-131" target="-YhR4COmM_-pPNWxMUSu-95" edge="1">
          <mxGeometry relative="1" as="geometry">
            <Array as="points">
              <mxPoint x="1700" y="650" />
              <mxPoint x="1800" y="650" />
              <mxPoint x="1800" y="30" />
            </Array>
          </mxGeometry>
        </mxCell>
        <mxCell id="-YhR4COmM_-pPNWxMUSu-131" value="&lt;font style=&quot;font-size: 10px;&quot;&gt;Is delete operation&lt;br&gt;Success?&lt;/font&gt;" style="rhombus;whiteSpace=wrap;html=1;rounded=0;" parent="1" vertex="1">
          <mxGeometry x="1642.5" y="483.75" width="115" height="122.5" as="geometry" />
        </mxCell>
        <mxCell id="-YhR4COmM_-pPNWxMUSu-135" value="Y" style="text;html=1;align=center;verticalAlign=middle;resizable=0;points=[];autosize=1;strokeColor=none;fillColor=none;" parent="1" vertex="1">
          <mxGeometry x="1735" y="418" width="30" height="30" as="geometry" />
        </mxCell>
        <mxCell id="-YhR4COmM_-pPNWxMUSu-136" value="N" style="text;html=1;align=center;verticalAlign=middle;resizable=0;points=[];autosize=1;strokeColor=none;fillColor=none;" parent="1" vertex="1">
          <mxGeometry x="1695" y="608" width="30" height="30" as="geometry" />
        </mxCell>
        <mxCell id="-YhR4COmM_-pPNWxMUSu-140" style="edgeStyle=orthogonalEdgeStyle;rounded=0;orthogonalLoop=1;jettySize=auto;html=1;entryX=0;entryY=0.5;entryDx=0;entryDy=0;" parent="1" source="-YhR4COmM_-pPNWxMUSu-137" target="-YhR4COmM_-pPNWxMUSu-138" edge="1">
          <mxGeometry relative="1" as="geometry" />
        </mxCell>
        <mxCell id="-YhR4COmM_-pPNWxMUSu-137" value="/api/doc/v1//update-document&amp;nbsp;&lt;br&gt;&amp;nbsp;/ POST" style="rounded=0;whiteSpace=wrap;html=1;strokeColor=none;" parent="1" vertex="1">
          <mxGeometry x="-70" y="560" width="210" height="80" as="geometry" />
        </mxCell>
        <mxCell id="-YhR4COmM_-pPNWxMUSu-144" style="edgeStyle=orthogonalEdgeStyle;rounded=0;orthogonalLoop=1;jettySize=auto;html=1;" parent="1" source="-YhR4COmM_-pPNWxMUSu-138" target="-YhR4COmM_-pPNWxMUSu-143" edge="1">
          <mxGeometry relative="1" as="geometry" />
        </mxCell>
        <mxCell id="-YhR4COmM_-pPNWxMUSu-138" value="updateDocument()" style="rounded=0;whiteSpace=wrap;html=1;" parent="1" vertex="1">
          <mxGeometry x="320" y="560" width="210" height="80" as="geometry" />
        </mxCell>
        <mxCell id="-YhR4COmM_-pPNWxMUSu-139" value="&lt;span style=&quot;color: rgb(0, 0, 0); font-family: Helvetica; font-size: 12px; font-style: normal; font-variant-ligatures: normal; font-variant-caps: normal; font-weight: 400; letter-spacing: normal; orphans: 2; text-align: center; text-indent: 0px; text-transform: none; widows: 2; word-spacing: 0px; -webkit-text-stroke-width: 0px; background-color: rgb(251, 251, 251); text-decoration-thickness: initial; text-decoration-style: initial; text-decoration-color: initial; float: none; display: inline !important;&quot;&gt;PathVariable&amp;nbsp; documentId&lt;/span&gt;" style="text;whiteSpace=wrap;html=1;" parent="1" vertex="1">
          <mxGeometry x="160" y="485" width="150" height="30" as="geometry" />
        </mxCell>
        <mxCell id="-YhR4COmM_-pPNWxMUSu-141" value="UpdateDocumentRequest" style="text;html=1;align=center;verticalAlign=middle;resizable=0;points=[];autosize=1;strokeColor=none;fillColor=none;" parent="1" vertex="1">
          <mxGeometry x="145" y="570" width="160" height="30" as="geometry" />
        </mxCell>
        <mxCell id="-YhR4COmM_-pPNWxMUSu-147" style="edgeStyle=orthogonalEdgeStyle;rounded=0;orthogonalLoop=1;jettySize=auto;html=1;entryX=0;entryY=0.5;entryDx=0;entryDy=0;" parent="1" source="-YhR4COmM_-pPNWxMUSu-143" target="-YhR4COmM_-pPNWxMUSu-145" edge="1">
          <mxGeometry relative="1" as="geometry" />
        </mxCell>
        <mxCell id="-YhR4COmM_-pPNWxMUSu-143" value="updateDocument()&lt;br&gt;&lt;br&gt;Return:&amp;nbsp;DocumentListResponse" style="rounded=0;whiteSpace=wrap;html=1;" parent="1" vertex="1">
          <mxGeometry x="640" y="560" width="210" height="80" as="geometry" />
        </mxCell>
        <mxCell id="-YhR4COmM_-pPNWxMUSu-149" style="edgeStyle=orthogonalEdgeStyle;rounded=0;orthogonalLoop=1;jettySize=auto;html=1;entryX=0;entryY=0.5;entryDx=0;entryDy=0;" parent="1" source="-YhR4COmM_-pPNWxMUSu-145" target="-YhR4COmM_-pPNWxMUSu-148" edge="1">
          <mxGeometry relative="1" as="geometry" />
        </mxCell>
        <mxCell id="-YhR4COmM_-pPNWxMUSu-145" value="updateDocument" style="rounded=0;whiteSpace=wrap;html=1;" parent="1" vertex="1">
          <mxGeometry x="972.5" y="550" width="117.5" height="50" as="geometry" />
        </mxCell>
        <mxCell id="-YhR4COmM_-pPNWxMUSu-151" style="edgeStyle=orthogonalEdgeStyle;rounded=0;orthogonalLoop=1;jettySize=auto;html=1;entryX=0;entryY=0.5;entryDx=0;entryDy=0;" parent="1" source="-YhR4COmM_-pPNWxMUSu-148" target="-YhR4COmM_-pPNWxMUSu-150" edge="1">
          <mxGeometry relative="1" as="geometry" />
        </mxCell>
        <mxCell id="-YhR4COmM_-pPNWxMUSu-148" value="UpdateDocumentService&lt;br&gt;executable&amp;nbsp;service" style="rounded=0;whiteSpace=wrap;html=1;" parent="1" vertex="1">
          <mxGeometry x="1195" y="665" width="170" height="80" as="geometry" />
        </mxCell>
        <mxCell id="-YhR4COmM_-pPNWxMUSu-152" style="edgeStyle=orthogonalEdgeStyle;rounded=0;orthogonalLoop=1;jettySize=auto;html=1;entryX=0.581;entryY=0.975;entryDx=0;entryDy=0;entryPerimeter=0;jumpStyle=arc;strokeColor=none;" parent="1" source="-YhR4COmM_-pPNWxMUSu-150" target="-YhR4COmM_-pPNWxMUSu-86" edge="1">
          <mxGeometry relative="1" as="geometry">
            <Array as="points">
              <mxPoint x="1530" y="520" />
              <mxPoint x="1530" y="520" />
            </Array>
          </mxGeometry>
        </mxCell>
        <mxCell id="-YhR4COmM_-pPNWxMUSu-179" style="edgeStyle=orthogonalEdgeStyle;rounded=0;orthogonalLoop=1;jettySize=auto;html=1;entryX=0.5;entryY=0;entryDx=0;entryDy=0;" parent="1" source="-YhR4COmM_-pPNWxMUSu-150" target="-YhR4COmM_-pPNWxMUSu-156" edge="1">
          <mxGeometry relative="1" as="geometry" />
        </mxCell>
        <mxCell id="-YhR4COmM_-pPNWxMUSu-150" value="Update" style="rounded=0;whiteSpace=wrap;html=1;" parent="1" vertex="1">
          <mxGeometry x="1440" y="675" width="120" height="60" as="geometry" />
        </mxCell>
        <mxCell id="-YhR4COmM_-pPNWxMUSu-180" style="edgeStyle=orthogonalEdgeStyle;rounded=0;orthogonalLoop=1;jettySize=auto;html=1;entryX=0;entryY=0.5;entryDx=0;entryDy=0;" parent="1" source="-YhR4COmM_-pPNWxMUSu-156" target="-YhR4COmM_-pPNWxMUSu-157" edge="1">
          <mxGeometry relative="1" as="geometry" />
        </mxCell>
        <mxCell id="-YhR4COmM_-pPNWxMUSu-156" value="Save Operation" style="rounded=0;whiteSpace=wrap;html=1;" parent="1" vertex="1">
          <mxGeometry x="1440" y="770" width="120" height="60" as="geometry" />
        </mxCell>
        <mxCell id="-YhR4COmM_-pPNWxMUSu-159" style="edgeStyle=orthogonalEdgeStyle;rounded=0;orthogonalLoop=1;jettySize=auto;html=1;entryX=1;entryY=0.5;entryDx=0;entryDy=0;entryPerimeter=0;" parent="1" source="-YhR4COmM_-pPNWxMUSu-157" target="-YhR4COmM_-pPNWxMUSu-28" edge="1">
          <mxGeometry relative="1" as="geometry">
            <Array as="points">
              <mxPoint x="1841" y="310" />
            </Array>
          </mxGeometry>
        </mxCell>
        <mxCell id="-YhR4COmM_-pPNWxMUSu-160" style="edgeStyle=orthogonalEdgeStyle;rounded=0;orthogonalLoop=1;jettySize=auto;html=1;entryX=1;entryY=0.25;entryDx=0;entryDy=0;" parent="1" source="-YhR4COmM_-pPNWxMUSu-157" target="-YhR4COmM_-pPNWxMUSu-95" edge="1">
          <mxGeometry relative="1" as="geometry">
            <Array as="points">
              <mxPoint x="1688" y="850" />
              <mxPoint x="1910" y="850" />
              <mxPoint x="1910" y="15" />
            </Array>
          </mxGeometry>
        </mxCell>
        <mxCell id="-YhR4COmM_-pPNWxMUSu-157" value="&lt;font style=&quot;font-size: 10px;&quot;&gt;Is save operation&lt;br&gt;Success?&lt;/font&gt;" style="rhombus;whiteSpace=wrap;html=1;rounded=0;" parent="1" vertex="1">
          <mxGeometry x="1630" y="698" width="115" height="122.5" as="geometry" />
        </mxCell>
        <mxCell id="-YhR4COmM_-pPNWxMUSu-161" value="N" style="text;html=1;align=center;verticalAlign=middle;resizable=0;points=[];autosize=1;strokeColor=none;fillColor=none;" parent="1" vertex="1">
          <mxGeometry x="1905" y="698" width="30" height="30" as="geometry" />
        </mxCell>
        <mxCell id="-YhR4COmM_-pPNWxMUSu-162" value="Y" style="text;html=1;align=center;verticalAlign=middle;resizable=0;points=[];autosize=1;strokeColor=none;fillColor=none;" parent="1" vertex="1">
          <mxGeometry x="1835" y="618" width="30" height="30" as="geometry" />
        </mxCell>
        <mxCell id="-YhR4COmM_-pPNWxMUSu-164" value="" style="rounded=0;whiteSpace=wrap;html=1;fillColor=#dae8fc;strokeColor=#6c8ebf;fillStyle=hatch;" parent="1" vertex="1">
          <mxGeometry x="297.5" y="50" width="255" height="670" as="geometry" />
        </mxCell>
        <mxCell id="-YhR4COmM_-pPNWxMUSu-165" value="" style="rounded=0;whiteSpace=wrap;html=1;fillColor=#f8cecc;strokeColor=#b85450;fillStyle=hatch;" parent="1" vertex="1">
          <mxGeometry x="617.5" y="65" width="255" height="670" as="geometry" />
        </mxCell>
        <mxCell id="-YhR4COmM_-pPNWxMUSu-166" value="" style="rounded=0;whiteSpace=wrap;html=1;fillColor=#fff2cc;strokeColor=#d6b656;fillStyle=hatch;" parent="1" vertex="1">
          <mxGeometry x="903.75" y="50" width="255" height="670" as="geometry" />
        </mxCell>
        <mxCell id="-YhR4COmM_-pPNWxMUSu-167" value="" style="rounded=0;whiteSpace=wrap;html=1;fillColor=#60a917;strokeColor=#2D7600;fillStyle=hatch;fontColor=#ffffff;" parent="1" vertex="1">
          <mxGeometry x="1180" y="20" width="215" height="285" as="geometry" />
        </mxCell>
        <mxCell id="-YhR4COmM_-pPNWxMUSu-168" value="Save Document" style="text;html=1;align=center;verticalAlign=middle;resizable=0;points=[];autosize=1;strokeColor=none;fillColor=none;" parent="1" vertex="1">
          <mxGeometry x="1275" y="280" width="110" height="30" as="geometry" />
        </mxCell>
        <mxCell id="-YhR4COmM_-pPNWxMUSu-169" value="" style="rounded=0;whiteSpace=wrap;html=1;fillColor=#1B3ECD;strokeColor=#2D7600;fillStyle=hatch;fontColor=#ffffff;" parent="1" vertex="1">
          <mxGeometry x="1180" y="328" width="205" height="192" as="geometry" />
        </mxCell>
        <mxCell id="-YhR4COmM_-pPNWxMUSu-170" value="Get Document" style="text;html=1;align=center;verticalAlign=middle;resizable=0;points=[];autosize=1;strokeColor=none;fillColor=none;" parent="1" vertex="1">
          <mxGeometry x="1290" y="490" width="100" height="30" as="geometry" />
        </mxCell>
        <mxCell id="-YhR4COmM_-pPNWxMUSu-173" value="" style="rounded=0;whiteSpace=wrap;html=1;fillColor=#1ba1e2;strokeColor=#006EAF;fillStyle=hatch;fontColor=#ffffff;" parent="1" vertex="1">
          <mxGeometry x="1175" y="520" width="215" height="270" as="geometry" />
        </mxCell>
        <mxCell id="-YhR4COmM_-pPNWxMUSu-174" value="Delete/Update" style="text;html=1;align=center;verticalAlign=middle;resizable=0;points=[];autosize=1;strokeColor=none;fillColor=none;" parent="1" vertex="1">
          <mxGeometry x="1275" y="750" width="100" height="30" as="geometry" />
        </mxCell>
        <mxCell id="-YhR4COmM_-pPNWxMUSu-176" value="" style="rounded=0;whiteSpace=wrap;html=1;fillStyle=hatch;fillColor=#0050ef;fontColor=#ffffff;strokeColor=#001DBC;" parent="1" vertex="1">
          <mxGeometry x="1426.25" y="60" width="147.5" height="820" as="geometry" />
        </mxCell>
        <mxCell id="-YhR4COmM_-pPNWxMUSu-178" value="CRUD Operations" style="text;html=1;align=center;verticalAlign=middle;resizable=0;points=[];autosize=1;strokeColor=none;fillColor=none;" parent="1" vertex="1">
          <mxGeometry x="1460" y="840" width="120" height="30" as="geometry" />
        </mxCell>
        <mxCell id="-YhR4COmM_-pPNWxMUSu-183" value="" style="rounded=0;whiteSpace=wrap;html=1;fillColor=#60a917;strokeColor=#2D7600;fillStyle=hatch;fontColor=#ffffff;" parent="1" vertex="1">
          <mxGeometry x="-102.5" y="65" width="255" height="670" as="geometry" />
        </mxCell>
      </root>
    </mxGraphModel>
  </diagram>
  <diagram id="RMWNPjo5SbQ8rVLxOT_b" name="architectur">
    <mxGraphModel dx="1434" dy="699" grid="1" gridSize="10" guides="1" tooltips="1" connect="1" arrows="1" fold="1" page="1" pageScale="1" pageWidth="827" pageHeight="1169" math="0" shadow="0">
      <root>
        <mxCell id="0" />
        <mxCell id="1" parent="0" />
        <mxCell id="EgvmIZnD59OI29mKt1aS-5" style="edgeStyle=orthogonalEdgeStyle;rounded=0;orthogonalLoop=1;jettySize=auto;html=1;entryX=0;entryY=0.5;entryDx=0;entryDy=0;startArrow=classic;startFill=1;" edge="1" parent="1" source="EgvmIZnD59OI29mKt1aS-1" target="EgvmIZnD59OI29mKt1aS-4">
          <mxGeometry relative="1" as="geometry" />
        </mxCell>
        <mxCell id="EgvmIZnD59OI29mKt1aS-1" value="Controller" style="rounded=0;whiteSpace=wrap;html=1;fillColor=#dae8fc;strokeColor=#6c8ebf;" vertex="1" parent="1">
          <mxGeometry x="150" y="160" width="90" height="100" as="geometry" />
        </mxCell>
        <mxCell id="EgvmIZnD59OI29mKt1aS-7" value="" style="edgeStyle=orthogonalEdgeStyle;rounded=0;orthogonalLoop=1;jettySize=auto;html=1;startArrow=classic;startFill=1;" edge="1" parent="1" source="EgvmIZnD59OI29mKt1aS-4" target="EgvmIZnD59OI29mKt1aS-6">
          <mxGeometry relative="1" as="geometry" />
        </mxCell>
        <mxCell id="EgvmIZnD59OI29mKt1aS-4" value="Service Interface Layer" style="rounded=0;whiteSpace=wrap;html=1;fillColor=#dae8fc;strokeColor=#6c8ebf;" vertex="1" parent="1">
          <mxGeometry x="290" y="160" width="90" height="100" as="geometry" />
        </mxCell>
        <mxCell id="EgvmIZnD59OI29mKt1aS-9" value="" style="edgeStyle=orthogonalEdgeStyle;rounded=0;orthogonalLoop=1;jettySize=auto;html=1;startArrow=block;startFill=1;" edge="1" parent="1" source="EgvmIZnD59OI29mKt1aS-6" target="EgvmIZnD59OI29mKt1aS-8">
          <mxGeometry relative="1" as="geometry" />
        </mxCell>
        <mxCell id="EgvmIZnD59OI29mKt1aS-6" value="Service Impl Layer" style="rounded=0;whiteSpace=wrap;html=1;fillColor=#dae8fc;strokeColor=#6c8ebf;" vertex="1" parent="1">
          <mxGeometry x="430" y="160" width="90" height="100" as="geometry" />
        </mxCell>
        <mxCell id="EgvmIZnD59OI29mKt1aS-8" value="Executable&lt;br&gt;service" style="rounded=0;whiteSpace=wrap;html=1;fillColor=#dae8fc;strokeColor=#6c8ebf;" vertex="1" parent="1">
          <mxGeometry x="570" y="160" width="90" height="100" as="geometry" />
        </mxCell>
      </root>
    </mxGraphModel>
  </diagram>
</mxfile>
